<svg width="36" height="32" viewBox="0 0 36 32" fill="none" xmlns="http://www.w3.org/2000/svg">
<path d="M5.56884 27.7335C4.73768 27.9113 4.48833 28.1779 3.98962 28.6224C3.98962 29.4224 4.07274 30.0446 4.07274 30.9335C4.07274 31.3779 4.48833 32.089 5.48573 31.4668C6.15066 30.9335 5.8182 28.4446 6.73248 27.3779C6.3169 27.3779 5.98443 27.6446 5.56884 27.7335Z" fill="#3F3B3D"/>
<path d="M33.2467 17.3333C32.1662 17.4222 28.5922 17.5111 26.5143 16C26.5143 16.0889 26.5974 16.1778 26.6805 16.3556C27.9273 18.2222 29.6727 19.2 31.2519 19.5556C32 19.4667 32.5818 19.3778 33.2467 19.0222C34.4935 18.6667 33.9948 17.2444 33.2467 17.3333Z" fill="#3F3B3D"/>
<path d="M14.6286 3.20015C16.2078 2.40015 18.3688 3.82238 20.2805 6.40015C20.613 6.31126 20.8624 6.0446 21.1948 5.95571C19.1169 3.20015 16.7065 1.77793 14.9611 2.57793C14.213 2.93349 13.7143 3.46682 13.3818 4.26682C13.7974 3.73349 14.213 3.46682 14.6286 3.20015Z" fill="#3F3B3D"/>
<path d="M24.5195 22.0447C24.187 23.4669 23.5221 24.5336 22.6078 24.978C22.1091 25.1558 21.6104 25.1558 21.1117 25.0669C21.9429 25.4225 22.6078 25.4225 23.3559 25.0669C24.2701 24.6225 24.9351 23.6447 25.3507 22.4002C25.0182 22.2225 24.6857 22.1336 24.5195 22.0447Z" fill="#3F3B3D"/>
<path d="M21.1948 4.53339C18.9507 1.95562 16.4572 0.622283 14.2961 1.51117C10.9715 2.93339 10.2234 9.68895 12.7169 16.5334C15.2104 23.3778 19.9481 27.7334 23.3559 26.4001C24.6857 25.8667 25.6 24.5334 26.0156 22.7556C26.1818 22.1334 26.5143 26.6667 23.0234 28.089C19.4494 29.6001 14.3792 24.7112 11.5533 17.1556C8.7273 9.51117 9.55846 2.04451 13.1325 0.444505C15.3766 -0.799939 18.5351 1.06673 21.1948 4.53339Z" fill="#3F3B3D"/>
<path d="M10.1403 16.8891C8.39484 12.0002 8.22861 7.11129 9.55848 4.26685C7.97926 5.24462 6.73251 9.24462 7.97926 14.6668C6.06757 15.8224 5.15329 16.178 3.15848 15.6446C1.57926 15.2002 0.997442 13.5113 0.914325 13.6891C-0.498662 16.6224 2.65978 18.8446 4.48835 18.7557C4.32212 21.8668 2.49355 23.5557 1.66238 24.7113C0.664974 26.3113 0.415623 28.3557 0.24939 31.1113C0.24939 31.5557 0.581857 32.4446 1.57926 31.9113C2.16108 31.5557 2.16108 29.0668 3.32471 28.0891C4.32212 27.2002 4.7377 27.2891 6.64939 26.578C8.81043 25.6891 10.7221 24.2668 10.8884 22.4002C10.9715 22.578 11.2208 22.9335 11.3871 23.2002C14.0468 27.2891 16.2078 26.578 16.2078 26.578C13.5481 24.4446 11.5533 20.7113 10.1403 16.8891Z" fill="#3F3B3D"/>
<path d="M32.2493 4.44452C32.4156 3.82229 32.748 2.31118 32.0831 1.77785C31.7506 1.60007 31.335 2.57785 30.3376 3.20007C30.8363 3.28896 31.7506 3.73341 32.2493 4.44452Z" fill="#3F3B3D"/>
<path d="M33.6624 20.7999C32.1663 20.7999 28.1766 19.9999 26.0987 16.7999C24.1039 13.5999 26.265 10.1333 29.9221 11.1999C35.6572 12.8888 35.9065 9.68883 35.7403 8.62216C34.0779 7.99994 32.8312 7.82216 32.665 6.66661C32.1663 4.17772 29.9221 3.99994 29.3403 3.64438C29.2572 3.19994 28.7585 1.24438 27.7611 1.24438C27.2624 1.24438 27.6779 3.28883 26.1818 4.71105C21.4442 6.66661 16.7065 9.1555 12.6338 11.7333C12.8 13.1555 13.2156 14.6666 13.8805 16.1777C14.3792 17.6888 15.1273 19.111 15.7922 20.2666C16.7896 20.2666 18.0364 20.2666 19.6156 20.3555C24.9351 20.5333 28.8416 23.5555 33.5792 22.7555C34.6598 22.3111 34.4104 20.8888 33.6624 20.7999ZM30.5039 6.22216C30.8364 6.22216 30.9195 6.39994 30.9195 6.7555C30.9195 7.11105 30.7533 7.19994 30.4208 7.19994C30.0883 7.19994 30.0052 7.02216 30.0052 6.66661C30.1715 6.48883 30.3377 6.22216 30.5039 6.22216Z" fill="#3F3B3D"/>
</svg>
