<svg width="44" height="32" viewBox="0 0 44 32" fill="none" xmlns="http://www.w3.org/2000/svg">
<path d="M22.3475 24.3556H11.6459C11.3311 24.3556 11.1213 24.2667 10.9115 24L3.14754 12.5333C3.04262 12.3556 3.04262 12.0889 3.14754 11.8222L10.9115 0.355556C11.1213 0 11.6459 -0.0888889 12.0656 0.0888889C12.4852 0.266667 12.5902 0.711111 12.3803 1.06667L4.82622 12.1778L12.1705 22.9333H22.4525C22.8721 22.9333 23.2918 23.2889 23.2918 23.6444C23.2918 24 22.8721 24.3556 22.3475 24.3556Z" fill="#3F3B3D"/>
<path d="M14.2689 20.8C14.059 20.8 13.7443 20.7111 13.5344 20.4444L8.18361 12.5333C8.07869 12.3556 8.07869 12.0889 8.18361 11.8222L16.0525 0.355556C16.1574 0.177778 16.4721 0 16.7869 0H32.4197C32.8393 0 33.259 0.355556 33.259 0.711111C33.259 1.06667 32.8393 1.42222 32.4197 1.42222H17.2066L9.8623 12.1778L15.0033 19.7333C15.2131 20.0889 15.1082 20.4444 14.6885 20.7111C14.5836 20.8 14.4787 20.8 14.2689 20.8Z" fill="#3F3B3D"/>
<path d="M42.7016 16.7112C42.4918 16.7112 42.177 16.6223 41.9672 16.3556L34.518 5.24449H19.8295L14.6885 12.8C14.4787 13.1556 13.9541 13.2445 13.5344 13.0667C13.1147 12.8889 13.0098 12.4445 13.2197 12.0889L18.5705 4.17782C18.6754 4.00004 18.9902 3.82227 19.3049 3.82227H34.9377C35.2525 3.82227 35.4623 3.91115 35.6721 4.17782L43.4361 15.6445C43.6459 16 43.541 16.3556 43.1213 16.6223C43.0164 16.6223 42.9115 16.7112 42.7016 16.7112Z" fill="#3F3B3D"/>
<path d="M32.4197 32.0001C32.3148 32.0001 32.2098 31.9112 32 31.9112C31.5803 31.7334 31.4754 31.289 31.6853 30.9334L39.2394 19.8223L31.8951 9.06675H21.718C21.2984 9.06675 20.8787 8.7112 20.8787 8.35564C20.8787 8.00009 21.2984 7.64453 21.718 7.64453H32.4197C32.7344 7.64453 32.9443 7.73342 33.1541 8.00009L40.918 19.4668C41.023 19.6445 41.023 19.9112 40.918 20.1779L33.1541 31.6445C33.0492 31.8223 32.7344 32.0001 32.4197 32.0001Z" fill="#3F3B3D"/>
<path d="M27.2787 31.9111H11.6459C11.2262 31.9111 10.8066 31.5555 10.8066 31.2C10.8066 30.8444 11.2262 30.4889 11.6459 30.4889H26.859L34.2033 19.7333L29.0623 12.1778C28.8525 11.8222 28.9574 11.4666 29.3771 11.2C29.7967 11.0222 30.2164 11.1111 30.5312 11.4666L35.882 19.3778C35.9869 19.5555 35.9869 19.8222 35.882 20.0889L28.0131 31.5555C27.9082 31.8222 27.5935 31.9111 27.2787 31.9111Z" fill="#3F3B3D"/>
<path d="M24.8656 28.0891H9.12787C8.81312 28.0891 8.60328 28.0002 8.39344 27.7335L0.629509 16.3557C0.419673 16.0002 0.524591 15.5557 0.839345 15.378C1.25902 15.2002 1.67869 15.2891 1.99344 15.6446L9.54754 26.7557H24.2361L29.377 19.2002C29.5869 18.8446 30.1115 18.7557 30.5311 18.9335C30.9508 19.1113 31.0557 19.5557 30.8459 19.9113L25.4951 27.7335C25.2852 28.0002 25.0754 28.0891 24.8656 28.0891Z" fill="#3F3B3D"/>
</svg>
