<svg width="153" height="16" viewBox="0 0 153 16" fill="none" xmlns="http://www.w3.org/2000/svg">
<path d="M7.60938 7.32812H8.75C8.75 8.14583 8.51562 8.76042 8.04688 9.17188C7.58333 9.57812 6.95312 9.78125 6.15625 9.78125C5.60417 9.78125 5.125 9.65365 4.71875 9.39844C4.31771 9.14323 4.00521 8.78906 3.78125 8.33594C3.5625 7.88281 3.45312 7.35677 3.45312 6.75781V5.85938C3.45312 5.26042 3.5625 4.73438 3.78125 4.28125C4.00521 3.82812 4.31771 3.47396 4.71875 3.21875C5.125 2.96354 5.60417 2.83594 6.15625 2.83594C6.95312 2.83594 7.58594 3.03906 8.05469 3.44531C8.52344 3.85156 8.75781 4.46354 8.75781 5.28125H7.61719C7.61719 4.76562 7.49219 4.39583 7.24219 4.17188C6.9974 3.94792 6.63542 3.83594 6.15625 3.83594C5.8125 3.83594 5.52344 3.92188 5.28906 4.09375C5.05469 4.26562 4.8776 4.50521 4.75781 4.8125C4.63802 5.11458 4.57812 5.46094 4.57812 5.85156V6.75781C4.57812 7.15365 4.63802 7.50521 4.75781 7.8125C4.8776 8.11458 5.05469 8.35156 5.28906 8.52344C5.52344 8.69531 5.8125 8.78125 6.15625 8.78125C6.63542 8.78125 6.9974 8.66927 7.24219 8.44531C7.48698 8.22135 7.60938 7.84896 7.60938 7.32812ZM1.61719 6.30469C1.61719 6.9974 1.73698 7.64323 1.97656 8.24219C2.21615 8.84115 2.54948 9.36458 2.97656 9.8125C3.40365 10.2604 3.89844 10.6094 4.46094 10.8594C5.02344 11.1094 5.625 11.2344 6.26562 11.2344C6.90625 11.2344 7.50521 11.1094 8.0625 10.8594C8.625 10.6094 9.11719 10.2604 9.53906 9.8125C9.96615 9.36458 10.2995 8.84115 10.5391 8.24219C10.7786 7.64323 10.8984 6.9974 10.8984 6.30469C10.8984 5.60677 10.7786 4.96094 10.5391 4.36719C10.2995 3.77344 9.96615 3.25521 9.53906 2.8125C9.11719 2.36458 8.625 2.01823 8.0625 1.77344C7.50521 1.52344 6.90625 1.39844 6.26562 1.39844C5.625 1.39844 5.02344 1.52344 4.46094 1.77344C3.89844 2.01823 3.40365 2.36458 2.97656 2.8125C2.54948 3.25521 2.21615 3.77344 1.97656 4.36719C1.73698 4.96094 1.61719 5.60677 1.61719 6.30469ZM0.71875 6.30469C0.71875 5.47656 0.861979 4.70833 1.14844 4C1.4349 3.29167 1.83333 2.67448 2.34375 2.14844C2.85417 1.61719 3.44271 1.20573 4.10938 0.914062C4.78125 0.617188 5.5 0.46875 6.26562 0.46875C7.03125 0.46875 7.7474 0.617188 8.41406 0.914062C9.08594 1.20573 9.67448 1.61719 10.1797 2.14844C10.6901 2.67448 11.0885 3.29167 11.375 4C11.6615 4.70833 11.8047 5.47656 11.8047 6.30469C11.8047 7.13281 11.6615 7.90104 11.375 8.60938C11.0885 9.31771 10.6901 9.9401 10.1797 10.4766C9.67448 11.0078 9.08594 11.4219 8.41406 11.7188C7.7474 12.0156 7.03125 12.1641 6.26562 12.1641C5.5 12.1641 4.78125 12.0156 4.10938 11.7188C3.44271 11.4219 2.85417 11.0078 2.34375 10.4766C1.83333 9.9401 1.4349 9.31771 1.14844 8.60938C0.861979 7.90104 0.71875 7.13281 0.71875 6.30469ZM22.0625 7.53906H19.0234V6.3125H22.0625C22.651 6.3125 23.1276 6.21875 23.4922 6.03125C23.8568 5.84375 24.1224 5.58333 24.2891 5.25C24.4609 4.91667 24.5469 4.53646 24.5469 4.10938C24.5469 3.71875 24.4609 3.35156 24.2891 3.00781C24.1224 2.66406 23.8568 2.38802 23.4922 2.17969C23.1276 1.96615 22.651 1.85938 22.0625 1.85938H19.375V12H17.8672V0.625H22.0625C22.9219 0.625 23.6484 0.773438 24.2422 1.07031C24.8359 1.36719 25.2865 1.77865 25.5938 2.30469C25.901 2.82552 26.0547 3.42188 26.0547 4.09375C26.0547 4.82292 25.901 5.44531 25.5938 5.96094C25.2865 6.47656 24.8359 6.86979 24.2422 7.14062C23.6484 7.40625 22.9219 7.53906 22.0625 7.53906ZM32.9141 10.0469V3.54688H34.3672V12H32.9844L32.9141 10.0469ZM33.1875 8.26562L33.7891 8.25C33.7891 8.8125 33.7292 9.33333 33.6094 9.8125C33.4948 10.2865 33.3073 10.6979 33.0469 11.0469C32.7865 11.3958 32.4453 11.6693 32.0234 11.8672C31.6016 12.0599 31.0885 12.1562 30.4844 12.1562C30.0729 12.1562 29.6953 12.0964 29.3516 11.9766C29.013 11.8568 28.7214 11.6719 28.4766 11.4219C28.2318 11.1719 28.0417 10.8464 27.9062 10.4453C27.776 10.0443 27.7109 9.5625 27.7109 9V3.54688H29.1562V9.01562C29.1562 9.39583 29.1979 9.71094 29.2812 9.96094C29.3698 10.2057 29.487 10.401 29.6328 10.5469C29.7839 10.6875 29.9505 10.7865 30.1328 10.8438C30.3203 10.901 30.513 10.9297 30.7109 10.9297C31.3255 10.9297 31.8125 10.8125 32.1719 10.5781C32.5312 10.3385 32.7891 10.0182 32.9453 9.61719C33.1068 9.21094 33.1875 8.76042 33.1875 8.26562ZM38.1406 0V12H36.6875V0H38.1406ZM45.3828 9.75781C45.3828 9.54948 45.3359 9.35677 45.2422 9.17969C45.1536 8.9974 44.9688 8.83333 44.6875 8.6875C44.4115 8.53646 43.9948 8.40625 43.4375 8.29688C42.9688 8.19792 42.5443 8.08073 42.1641 7.94531C41.7891 7.8099 41.4688 7.64583 41.2031 7.45312C40.9427 7.26042 40.7422 7.03385 40.6016 6.77344C40.4609 6.51302 40.3906 6.20833 40.3906 5.85938C40.3906 5.52604 40.4635 5.21094 40.6094 4.91406C40.7604 4.61719 40.9714 4.35417 41.2422 4.125C41.5182 3.89583 41.849 3.71615 42.2344 3.58594C42.6198 3.45573 43.0495 3.39062 43.5234 3.39062C44.2005 3.39062 44.7786 3.51042 45.2578 3.75C45.737 3.98958 46.1042 4.3099 46.3594 4.71094C46.6146 5.10677 46.7422 5.54688 46.7422 6.03125H45.2969C45.2969 5.79688 45.2266 5.57031 45.0859 5.35156C44.9505 5.1276 44.75 4.94271 44.4844 4.79688C44.224 4.65104 43.9036 4.57812 43.5234 4.57812C43.1224 4.57812 42.7969 4.64062 42.5469 4.76562C42.3021 4.88542 42.1224 5.03906 42.0078 5.22656C41.8984 5.41406 41.8438 5.61198 41.8438 5.82031C41.8438 5.97656 41.8698 6.11719 41.9219 6.24219C41.9792 6.36198 42.0781 6.47396 42.2188 6.57812C42.3594 6.67708 42.5573 6.77083 42.8125 6.85938C43.0677 6.94792 43.3932 7.03646 43.7891 7.125C44.4818 7.28125 45.0521 7.46875 45.5 7.6875C45.9479 7.90625 46.2812 8.17448 46.5 8.49219C46.7188 8.8099 46.8281 9.19531 46.8281 9.64844C46.8281 10.0182 46.75 10.3568 46.5938 10.6641C46.4427 10.9714 46.2214 11.237 45.9297 11.4609C45.6432 11.6797 45.2995 11.8516 44.8984 11.9766C44.5026 12.0964 44.0573 12.1562 43.5625 12.1562C42.8177 12.1562 42.1875 12.0234 41.6719 11.7578C41.1562 11.4922 40.7656 11.1484 40.5 10.7266C40.2344 10.3047 40.1016 9.85938 40.1016 9.39062H41.5547C41.5755 9.78646 41.6901 10.1016 41.8984 10.3359C42.1068 10.5651 42.362 10.7292 42.6641 10.8281C42.9661 10.9219 43.2656 10.9688 43.5625 10.9688C43.9583 10.9688 44.2891 10.9167 44.5547 10.8125C44.8255 10.7083 45.0312 10.5651 45.1719 10.3828C45.3125 10.2005 45.3828 9.99219 45.3828 9.75781ZM52.2656 3.54688V4.65625H47.6953V3.54688H52.2656ZM49.2422 1.49219H50.6875V9.90625C50.6875 10.1927 50.7318 10.4089 50.8203 10.5547C50.9089 10.7005 51.0234 10.7969 51.1641 10.8438C51.3047 10.8906 51.4557 10.9141 51.6172 10.9141C51.737 10.9141 51.862 10.9036 51.9922 10.8828C52.1276 10.8568 52.2292 10.8359 52.2969 10.8203L52.3047 12C52.1901 12.0365 52.0391 12.0703 51.8516 12.1016C51.6693 12.138 51.4479 12.1562 51.1875 12.1562C50.8333 12.1562 50.5078 12.0859 50.2109 11.9453C49.9141 11.8047 49.6771 11.5703 49.5 11.2422C49.3281 10.9089 49.2422 10.4609 49.2422 9.89844V1.49219ZM58.9453 10.5547V6.20312C58.9453 5.86979 58.8776 5.58073 58.7422 5.33594C58.612 5.08594 58.4141 4.89323 58.1484 4.75781C57.8828 4.6224 57.5547 4.55469 57.1641 4.55469C56.7995 4.55469 56.4792 4.61719 56.2031 4.74219C55.9323 4.86719 55.7188 5.03125 55.5625 5.23438C55.4115 5.4375 55.3359 5.65625 55.3359 5.89062H53.8906C53.8906 5.58854 53.9688 5.28906 54.125 4.99219C54.2812 4.69531 54.5052 4.42708 54.7969 4.1875C55.0938 3.94271 55.4479 3.75 55.8594 3.60938C56.276 3.46354 56.7396 3.39062 57.25 3.39062C57.8646 3.39062 58.4062 3.49479 58.875 3.70312C59.349 3.91146 59.7188 4.22656 59.9844 4.64844C60.2552 5.0651 60.3906 5.58854 60.3906 6.21875V10.1562C60.3906 10.4375 60.4141 10.737 60.4609 11.0547C60.513 11.3724 60.5885 11.6458 60.6875 11.875V12H59.1797C59.1068 11.8333 59.0495 11.612 59.0078 11.3359C58.9661 11.0547 58.9453 10.7943 58.9453 10.5547ZM59.1953 6.875L59.2109 7.89062H57.75C57.3385 7.89062 56.9714 7.92448 56.6484 7.99219C56.3255 8.05469 56.0547 8.15104 55.8359 8.28125C55.6172 8.41146 55.4505 8.57552 55.3359 8.77344C55.2214 8.96615 55.1641 9.19271 55.1641 9.45312C55.1641 9.71875 55.224 9.96094 55.3438 10.1797C55.4635 10.3984 55.6432 10.5729 55.8828 10.7031C56.1276 10.8281 56.4271 10.8906 56.7812 10.8906C57.224 10.8906 57.6146 10.7969 57.9531 10.6094C58.2917 10.4219 58.5599 10.1927 58.7578 9.92188C58.9609 9.65104 59.0703 9.38802 59.0859 9.13281L59.7031 9.82812C59.6667 10.0469 59.5677 10.2891 59.4062 10.5547C59.2448 10.8203 59.0286 11.0755 58.7578 11.3203C58.4922 11.5599 58.1745 11.7604 57.8047 11.9219C57.4401 12.0781 57.0286 12.1562 56.5703 12.1562C55.9974 12.1562 55.4948 12.0443 55.0625 11.8203C54.6354 11.5964 54.3021 11.2969 54.0625 10.9219C53.8281 10.5417 53.7109 10.1172 53.7109 9.64844C53.7109 9.19531 53.7995 8.79688 53.9766 8.45312C54.1536 8.10417 54.4089 7.8151 54.7422 7.58594C55.0755 7.35156 55.4766 7.17448 55.9453 7.05469C56.4141 6.9349 56.9375 6.875 57.5156 6.875H59.1953ZM64.1094 4.875V12H62.6641V3.54688H64.0703L64.1094 4.875ZM66.75 3.5L66.7422 4.84375C66.6224 4.81771 66.5078 4.80208 66.3984 4.79688C66.2943 4.78646 66.1745 4.78125 66.0391 4.78125C65.7057 4.78125 65.4115 4.83333 65.1562 4.9375C64.901 5.04167 64.6849 5.1875 64.5078 5.375C64.3307 5.5625 64.1901 5.78646 64.0859 6.04688C63.987 6.30208 63.9219 6.58333 63.8906 6.89062L63.4844 7.125C63.4844 6.61458 63.5339 6.13542 63.6328 5.6875C63.737 5.23958 63.8958 4.84375 64.1094 4.5C64.3229 4.15104 64.5938 3.88021 64.9219 3.6875C65.2552 3.48958 65.651 3.39062 66.1094 3.39062C66.2135 3.39062 66.3333 3.40365 66.4688 3.42969C66.6042 3.45052 66.6979 3.47396 66.75 3.5ZM73.5 5.17188V15.25H72.0469V3.54688H73.375L73.5 5.17188ZM79.1953 7.70312V7.86719C79.1953 8.48177 79.1224 9.05208 78.9766 9.57812C78.8307 10.099 78.6172 10.5521 78.3359 10.9375C78.0599 11.3229 77.7188 11.6224 77.3125 11.8359C76.9062 12.0495 76.4401 12.1562 75.9141 12.1562C75.3776 12.1562 74.9036 12.0677 74.4922 11.8906C74.0807 11.7135 73.7318 11.4557 73.4453 11.1172C73.1589 10.7786 72.9297 10.3724 72.7578 9.89844C72.5911 9.42448 72.4766 8.89062 72.4141 8.29688V7.42188C72.4766 6.79688 72.5938 6.23698 72.7656 5.74219C72.9375 5.2474 73.1641 4.82552 73.4453 4.47656C73.7318 4.1224 74.0781 3.85417 74.4844 3.67188C74.8906 3.48438 75.3594 3.39062 75.8906 3.39062C76.4219 3.39062 76.8932 3.49479 77.3047 3.70312C77.7161 3.90625 78.0625 4.19792 78.3438 4.57812C78.625 4.95833 78.8359 5.41406 78.9766 5.94531C79.1224 6.47135 79.1953 7.05729 79.1953 7.70312ZM77.7422 7.86719V7.70312C77.7422 7.28125 77.6979 6.88542 77.6094 6.51562C77.5208 6.14062 77.3828 5.8125 77.1953 5.53125C77.013 5.24479 76.7786 5.02083 76.4922 4.85938C76.2057 4.69271 75.8646 4.60938 75.4688 4.60938C75.1042 4.60938 74.7865 4.67188 74.5156 4.79688C74.25 4.92188 74.0234 5.09115 73.8359 5.30469C73.6484 5.51302 73.4948 5.7526 73.375 6.02344C73.2604 6.28906 73.1745 6.5651 73.1172 6.85156V8.875C73.2214 9.23958 73.3672 9.58333 73.5547 9.90625C73.7422 10.224 73.9922 10.4818 74.3047 10.6797C74.6172 10.8724 75.0104 10.9688 75.4844 10.9688C75.875 10.9688 76.2109 10.888 76.4922 10.7266C76.7786 10.5599 77.013 10.3333 77.1953 10.0469C77.3828 9.76042 77.5208 9.43229 77.6094 9.0625C77.6979 8.6875 77.7422 8.28906 77.7422 7.86719ZM80.6562 7.86719V7.6875C80.6562 7.07812 80.7448 6.51302 80.9219 5.99219C81.099 5.46615 81.3542 5.01042 81.6875 4.625C82.0208 4.23438 82.4245 3.93229 82.8984 3.71875C83.3724 3.5 83.9036 3.39062 84.4922 3.39062C85.0859 3.39062 85.6198 3.5 86.0938 3.71875C86.5729 3.93229 86.9792 4.23438 87.3125 4.625C87.651 5.01042 87.9089 5.46615 88.0859 5.99219C88.263 6.51302 88.3516 7.07812 88.3516 7.6875V7.86719C88.3516 8.47656 88.263 9.04167 88.0859 9.5625C87.9089 10.0833 87.651 10.5391 87.3125 10.9297C86.9792 11.3151 86.5755 11.6172 86.1016 11.8359C85.6328 12.0495 85.1016 12.1562 84.5078 12.1562C83.9141 12.1562 83.3802 12.0495 82.9062 11.8359C82.4323 11.6172 82.026 11.3151 81.6875 10.9297C81.3542 10.5391 81.099 10.0833 80.9219 9.5625C80.7448 9.04167 80.6562 8.47656 80.6562 7.86719ZM82.1016 7.6875V7.86719C82.1016 8.28906 82.151 8.6875 82.25 9.0625C82.349 9.43229 82.4974 9.76042 82.6953 10.0469C82.8984 10.3333 83.151 10.5599 83.4531 10.7266C83.7552 10.888 84.1068 10.9688 84.5078 10.9688C84.9036 10.9688 85.25 10.888 85.5469 10.7266C85.849 10.5599 86.099 10.3333 86.2969 10.0469C86.4948 9.76042 86.6432 9.43229 86.7422 9.0625C86.8464 8.6875 86.8984 8.28906 86.8984 7.86719V7.6875C86.8984 7.27083 86.8464 6.8776 86.7422 6.50781C86.6432 6.13281 86.4922 5.80208 86.2891 5.51562C86.0911 5.22396 85.8411 4.99479 85.5391 4.82812C85.2422 4.66146 84.8932 4.57812 84.4922 4.57812C84.0964 4.57812 83.7474 4.66146 83.4453 4.82812C83.1484 4.99479 82.8984 5.22396 82.6953 5.51562C82.4974 5.80208 82.349 6.13281 82.25 6.50781C82.151 6.8776 82.1016 7.27083 82.1016 7.6875ZM92.3047 10.5L94.4766 3.54688H95.4297L95.2422 4.92969L93.0312 12H92.1016L92.3047 10.5ZM90.8438 3.54688L92.6953 10.5781L92.8281 12H91.8516L89.3984 3.54688H90.8438ZM97.5078 10.5234L99.2734 3.54688H100.711L98.2578 12H97.2891L97.5078 10.5234ZM95.6406 3.54688L97.7656 10.3828L98.0078 12H97.0859L94.8125 4.91406L94.625 3.54688H95.6406ZM105.703 12.1562C105.115 12.1562 104.581 12.0573 104.102 11.8594C103.628 11.6562 103.219 11.3724 102.875 11.0078C102.536 10.6432 102.276 10.2109 102.094 9.71094C101.911 9.21094 101.82 8.66406 101.82 8.07031V7.74219C101.82 7.05469 101.922 6.44271 102.125 5.90625C102.328 5.36458 102.604 4.90625 102.953 4.53125C103.302 4.15625 103.698 3.8724 104.141 3.67969C104.583 3.48698 105.042 3.39062 105.516 3.39062C106.12 3.39062 106.641 3.49479 107.078 3.70312C107.521 3.91146 107.883 4.20312 108.164 4.57812C108.445 4.94792 108.654 5.38542 108.789 5.89062C108.924 6.39062 108.992 6.9375 108.992 7.53125V8.17969H102.68V7H107.547V6.89062C107.526 6.51562 107.448 6.15104 107.312 5.79688C107.182 5.44271 106.974 5.15104 106.688 4.92188C106.401 4.69271 106.01 4.57812 105.516 4.57812C105.188 4.57812 104.885 4.64844 104.609 4.78906C104.333 4.92448 104.096 5.1276 103.898 5.39844C103.701 5.66927 103.547 6 103.438 6.39062C103.328 6.78125 103.273 7.23177 103.273 7.74219V8.07031C103.273 8.47135 103.328 8.84896 103.438 9.20312C103.552 9.55208 103.716 9.85938 103.93 10.125C104.148 10.3906 104.411 10.599 104.719 10.75C105.031 10.901 105.385 10.9766 105.781 10.9766C106.292 10.9766 106.724 10.8724 107.078 10.6641C107.432 10.4557 107.742 10.1771 108.008 9.82812L108.883 10.5234C108.701 10.7995 108.469 11.0625 108.188 11.3125C107.906 11.5625 107.56 11.7656 107.148 11.9219C106.742 12.0781 106.26 12.1562 105.703 12.1562ZM112.125 4.875V12H110.68V3.54688H112.086L112.125 4.875ZM114.766 3.5L114.758 4.84375C114.638 4.81771 114.523 4.80208 114.414 4.79688C114.31 4.78646 114.19 4.78125 114.055 4.78125C113.721 4.78125 113.427 4.83333 113.172 4.9375C112.917 5.04167 112.701 5.1875 112.523 5.375C112.346 5.5625 112.206 5.78646 112.102 6.04688C112.003 6.30208 111.938 6.58333 111.906 6.89062L111.5 7.125C111.5 6.61458 111.549 6.13542 111.648 5.6875C111.753 5.23958 111.911 4.84375 112.125 4.5C112.339 4.15104 112.609 3.88021 112.938 3.6875C113.271 3.48958 113.667 3.39062 114.125 3.39062C114.229 3.39062 114.349 3.40365 114.484 3.42969C114.62 3.45052 114.714 3.47396 114.766 3.5ZM119.453 12.1562C118.865 12.1562 118.331 12.0573 117.852 11.8594C117.378 11.6562 116.969 11.3724 116.625 11.0078C116.286 10.6432 116.026 10.2109 115.844 9.71094C115.661 9.21094 115.57 8.66406 115.57 8.07031V7.74219C115.57 7.05469 115.672 6.44271 115.875 5.90625C116.078 5.36458 116.354 4.90625 116.703 4.53125C117.052 4.15625 117.448 3.8724 117.891 3.67969C118.333 3.48698 118.792 3.39062 119.266 3.39062C119.87 3.39062 120.391 3.49479 120.828 3.70312C121.271 3.91146 121.633 4.20312 121.914 4.57812C122.195 4.94792 122.404 5.38542 122.539 5.89062C122.674 6.39062 122.742 6.9375 122.742 7.53125V8.17969H116.43V7H121.297V6.89062C121.276 6.51562 121.198 6.15104 121.062 5.79688C120.932 5.44271 120.724 5.15104 120.438 4.92188C120.151 4.69271 119.76 4.57812 119.266 4.57812C118.938 4.57812 118.635 4.64844 118.359 4.78906C118.083 4.92448 117.846 5.1276 117.648 5.39844C117.451 5.66927 117.297 6 117.188 6.39062C117.078 6.78125 117.023 7.23177 117.023 7.74219V8.07031C117.023 8.47135 117.078 8.84896 117.188 9.20312C117.302 9.55208 117.466 9.85938 117.68 10.125C117.898 10.3906 118.161 10.599 118.469 10.75C118.781 10.901 119.135 10.9766 119.531 10.9766C120.042 10.9766 120.474 10.8724 120.828 10.6641C121.182 10.4557 121.492 10.1771 121.758 9.82812L122.633 10.5234C122.451 10.7995 122.219 11.0625 121.938 11.3125C121.656 11.5625 121.31 11.7656 120.898 11.9219C120.492 12.0781 120.01 12.1562 119.453 12.1562ZM129.758 10.3594V0H131.211V12H129.883L129.758 10.3594ZM124.07 7.86719V7.70312C124.07 7.05729 124.148 6.47135 124.305 5.94531C124.466 5.41406 124.693 4.95833 124.984 4.57812C125.281 4.19792 125.633 3.90625 126.039 3.70312C126.451 3.49479 126.909 3.39062 127.414 3.39062C127.945 3.39062 128.409 3.48438 128.805 3.67188C129.206 3.85417 129.544 4.1224 129.82 4.47656C130.102 4.82552 130.323 5.2474 130.484 5.74219C130.646 6.23698 130.758 6.79688 130.82 7.42188V8.14062C130.763 8.76042 130.651 9.31771 130.484 9.8125C130.323 10.3073 130.102 10.7292 129.82 11.0781C129.544 11.4271 129.206 11.6953 128.805 11.8828C128.404 12.0651 127.935 12.1562 127.398 12.1562C126.904 12.1562 126.451 12.0495 126.039 11.8359C125.633 11.6224 125.281 11.3229 124.984 10.9375C124.693 10.5521 124.466 10.099 124.305 9.57812C124.148 9.05208 124.07 8.48177 124.07 7.86719ZM125.523 7.70312V7.86719C125.523 8.28906 125.565 8.6849 125.648 9.05469C125.737 9.42448 125.872 9.75 126.055 10.0312C126.237 10.3125 126.469 10.5339 126.75 10.6953C127.031 10.8516 127.367 10.9297 127.758 10.9297C128.237 10.9297 128.63 10.8281 128.938 10.625C129.25 10.4219 129.5 10.1536 129.688 9.82031C129.875 9.48698 130.021 9.125 130.125 8.73438V6.85156C130.062 6.5651 129.971 6.28906 129.852 6.02344C129.737 5.7526 129.586 5.51302 129.398 5.30469C129.216 5.09115 128.99 4.92188 128.719 4.79688C128.453 4.67188 128.138 4.60938 127.773 4.60938C127.378 4.60938 127.036 4.69271 126.75 4.85938C126.469 5.02083 126.237 5.24479 126.055 5.53125C125.872 5.8125 125.737 6.14062 125.648 6.51562C125.565 6.88542 125.523 7.28125 125.523 7.70312ZM137.422 0H138.875V10.3594L138.75 12H137.422V0ZM144.586 7.70312V7.86719C144.586 8.48177 144.513 9.05208 144.367 9.57812C144.221 10.099 144.008 10.5521 143.727 10.9375C143.445 11.3229 143.102 11.6224 142.695 11.8359C142.289 12.0495 141.823 12.1562 141.297 12.1562C140.76 12.1562 140.289 12.0651 139.883 11.8828C139.482 11.6953 139.143 11.4271 138.867 11.0781C138.591 10.7292 138.37 10.3073 138.203 9.8125C138.042 9.31771 137.93 8.76042 137.867 8.14062V7.42188C137.93 6.79688 138.042 6.23698 138.203 5.74219C138.37 5.2474 138.591 4.82552 138.867 4.47656C139.143 4.1224 139.482 3.85417 139.883 3.67188C140.284 3.48438 140.75 3.39062 141.281 3.39062C141.812 3.39062 142.284 3.49479 142.695 3.70312C143.107 3.90625 143.451 4.19792 143.727 4.57812C144.008 4.95833 144.221 5.41406 144.367 5.94531C144.513 6.47135 144.586 7.05729 144.586 7.70312ZM143.133 7.86719V7.70312C143.133 7.28125 143.094 6.88542 143.016 6.51562C142.938 6.14062 142.812 5.8125 142.641 5.53125C142.469 5.24479 142.242 5.02083 141.961 4.85938C141.68 4.69271 141.333 4.60938 140.922 4.60938C140.557 4.60938 140.24 4.67188 139.969 4.79688C139.703 4.92188 139.477 5.09115 139.289 5.30469C139.102 5.51302 138.948 5.7526 138.828 6.02344C138.714 6.28906 138.628 6.5651 138.57 6.85156V8.73438C138.654 9.09896 138.789 9.45052 138.977 9.78906C139.169 10.1224 139.424 10.3958 139.742 10.6094C140.065 10.8229 140.464 10.9297 140.938 10.9297C141.328 10.9297 141.661 10.8516 141.938 10.6953C142.219 10.5339 142.445 10.3125 142.617 10.0312C142.794 9.75 142.924 9.42448 143.008 9.05469C143.091 8.6849 143.133 8.28906 143.133 7.86719ZM148.695 11.125L151.047 3.54688H152.594L149.203 13.3047C149.125 13.513 149.021 13.737 148.891 13.9766C148.766 14.2214 148.604 14.4531 148.406 14.6719C148.208 14.8906 147.969 15.0677 147.688 15.2031C147.411 15.3438 147.081 15.4141 146.695 15.4141C146.581 15.4141 146.435 15.3984 146.258 15.3672C146.081 15.3359 145.956 15.3099 145.883 15.2891L145.875 14.1172C145.917 14.1224 145.982 14.1276 146.07 14.1328C146.164 14.1432 146.229 14.1484 146.266 14.1484C146.594 14.1484 146.872 14.1042 147.102 14.0156C147.331 13.9323 147.523 13.7891 147.68 13.5859C147.841 13.388 147.979 13.1146 148.094 12.7656L148.695 11.125ZM146.969 3.54688L149.164 10.1094L149.539 11.6328L148.5 12.1641L145.391 3.54688H146.969Z" fill="white"/>
</svg>
